<svg xmlns="http://www.w3.org/2000/svg" width="26" height="20" viewBox="0 0 26.581 20.252">
  <defs>
    <style>
      .cls-1 {
        fill: #e6e6e6;
      }
    </style>
  </defs>
  <path id="discord" class="cls-1" d="M48.536,33.71a.068.068,0,0,0-.035-.032A21.927,21.927,0,0,0,43.091,32a.082.082,0,0,0-.087.041,15.255,15.255,0,0,0-.674,1.383,20.245,20.245,0,0,0-6.077,0,13.993,13.993,0,0,0-.684-1.383A.085.085,0,0,0,35.483,32a21.865,21.865,0,0,0-5.411,1.677.077.077,0,0,0-.036.031A22.417,22.417,0,0,0,26.11,48.832a.091.091,0,0,0,.035.062,22.045,22.045,0,0,0,6.637,3.354.086.086,0,0,0,.093-.031,15.74,15.74,0,0,0,1.358-2.208.084.084,0,0,0-.046-.117,14.517,14.517,0,0,1-2.073-.988.085.085,0,0,1-.008-.141c.139-.1.279-.213.412-.323a.082.082,0,0,1,.086-.012,15.725,15.725,0,0,0,13.358,0,.082.082,0,0,1,.087.011c.133.11.272.219.413.324a.085.085,0,0,1-.007.141,13.624,13.624,0,0,1-2.074.987.085.085,0,0,0-.045.118,17.677,17.677,0,0,0,1.357,2.207.084.084,0,0,0,.093.032,21.972,21.972,0,0,0,6.648-3.354.085.085,0,0,0,.035-.061A22.269,22.269,0,0,0,48.536,33.71Zm-13.654,12.1a2.7,2.7,0,0,1,0-5.356,2.7,2.7,0,0,1,0,5.356Zm8.832,0a2.7,2.7,0,0,1,0-5.356,2.7,2.7,0,0,1,0,5.356Z" transform="translate(-26 -31.999)"/>
</svg>
