<svg xmlns="http://www.w3.org/2000/svg" width="26" height="26" viewBox="0 0 26.581 26.575">
  <defs>
    <style>
      .cls-1 {
        fill: #e6e6e6;
      }
    </style>
  </defs>
  <path id="instagram" class="cls-1" d="M13.218,38.3a6.813,6.813,0,1,0,6.813,6.813A6.8,6.8,0,0,0,13.218,38.3Zm0,11.243a4.43,4.43,0,1,1,4.43-4.43A4.438,4.438,0,0,1,13.218,49.542ZM21.9,38.02a1.589,1.589,0,1,1-1.589-1.589A1.586,1.586,0,0,1,21.9,38.02Zm4.513,1.613a7.865,7.865,0,0,0-2.147-5.568A7.916,7.916,0,0,0,18.7,31.918c-2.194-.125-8.77-.125-10.964,0a7.9,7.9,0,0,0-5.568,2.141A7.89,7.89,0,0,0,.018,39.627c-.125,2.194-.125,8.77,0,10.964A7.865,7.865,0,0,0,2.165,56.16a7.926,7.926,0,0,0,5.568,2.147c2.194.125,8.77.125,10.964,0a7.865,7.865,0,0,0,5.568-2.147,7.916,7.916,0,0,0,2.147-5.568C26.537,48.4,26.537,41.827,26.412,39.633ZM23.578,52.946a4.485,4.485,0,0,1-2.526,2.526c-1.749.694-5.9.534-7.833.534s-6.09.154-7.833-.534a4.485,4.485,0,0,1-2.526-2.526c-.694-1.749-.534-5.9-.534-7.833s-.154-6.09.534-7.833a4.485,4.485,0,0,1,2.526-2.526c1.749-.694,5.9-.534,7.833-.534s6.09-.154,7.833.534a4.485,4.485,0,0,1,2.526,2.526c.694,1.749.534,5.9.534,7.833S24.272,51.2,23.578,52.946Z" transform="translate(0.075 -31.825)"/>
</svg>
