<svg id="open-sea" xmlns="http://www.w3.org/2000/svg" width="30" height="24" viewBox="0 0 20.448 18.404">
  <defs>
    <style>
      .cls-1 {
        fill: #e6e6e6;
      }
    </style>
  </defs>
  <path id="Path_2" data-name="Path 2" class="cls-1" d="M.024,6.93.1,6.818,4.41.068a.148.148,0,0,1,.259.019C5.39,1.7,6.012,3.712,5.72,4.962a7.621,7.621,0,0,1-.849,1.856c-.049.094-.1.186-.162.274a.147.147,0,0,1-.123.065H.15A.147.147,0,0,1,.024,6.93Z" transform="translate(1.193 3.578)"/>
  <path id="Path_3" data-name="Path 3" class="cls-1" d="M20.448,11.763v1.068a.153.153,0,0,1-.092.14A5.313,5.313,0,0,0,18.4,14.3c-1.213,1.689-2.14,4.1-4.212,4.1H5.547A5.555,5.555,0,0,1,0,12.838v-.1a.148.148,0,0,1,.148-.148H4.967a.164.164,0,0,1,.157.182A1.645,1.645,0,0,0,5.3,13.7a1.7,1.7,0,0,0,1.52.944H9.2V12.78H6.843a.152.152,0,0,1-.123-.239c.026-.039.055-.08.085-.126.223-.317.542-.809.859-1.37a10.724,10.724,0,0,0,.595-1.188c.034-.073.061-.148.089-.222.046-.129.094-.25.128-.371.034-.1.061-.21.089-.31a4.8,4.8,0,0,0,.114-1.087c0-.148-.007-.3-.02-.452s-.027-.324-.048-.486c-.014-.143-.039-.285-.066-.433-.034-.216-.082-.431-.136-.648l-.019-.082c-.041-.148-.075-.29-.123-.438-.135-.465-.29-.918-.453-1.343-.06-.169-.128-.331-.2-.492-.1-.244-.2-.465-.3-.675-.048-.1-.089-.182-.129-.271s-.094-.2-.141-.3c-.034-.073-.073-.141-.1-.21L6.658,1.5a.1.1,0,0,1,.107-.138l1.823.494h.005l.007,0,.24.066L9.1,2l.1.027V.947A.942.942,0,0,1,10.139,0,.925.925,0,0,1,10.8.278a.953.953,0,0,1,.274.67V2.556l.194.055a.155.155,0,0,1,.044.022c.048.036.116.089.2.153.068.055.141.121.23.189.176.141.385.324.615.533.061.053.121.107.176.162.3.276.629.6.946.958.089.1.176.2.264.31s.182.216.264.324c.107.143.223.291.324.446.048.073.1.148.148.222.13.2.244.4.353.6.046.094.094.2.135.3a4.336,4.336,0,0,1,.278.823,1.026,1.026,0,0,1,.039.182v.014a1.561,1.561,0,0,1,.034.257,2.751,2.751,0,0,1-.048.85,3.1,3.1,0,0,1-.1.356c-.041.116-.082.237-.135.351a4.758,4.758,0,0,1-.366.7c-.046.082-.1.169-.155.25s-.121.169-.176.249c-.075.1-.155.21-.237.3a3.239,3.239,0,0,1-.23.29c-.114.135-.223.262-.337.385-.068.08-.141.162-.216.235s-.148.155-.216.223c-.114.114-.21.2-.29.276l-.187.172a.153.153,0,0,1-.1.037H11.076v1.863H12.9a1.709,1.709,0,0,0,1.111-.411,13.339,13.339,0,0,0,1.13-1.111.142.142,0,0,1,.07-.043l5.046-1.459A.149.149,0,0,1,20.448,11.763Z" transform="translate(0 0)"/>
</svg>
