<svg xmlns="http://www.w3.org/2000/svg" width="26" height="21" viewBox="0 0 26.581 21.588">
  <defs>
    <style>
      .cls-1 {
        fill: #e6e6e6;
      }
    </style>
  </defs>
  <path id="twitter" class="cls-1" d="M23.848,53.462c.017.236.017.472.017.708a15.394,15.394,0,0,1-15.5,15.5A15.4,15.4,0,0,1,0,67.225a11.268,11.268,0,0,0,1.316.067,10.91,10.91,0,0,0,6.763-2.327,5.457,5.457,0,0,1-5.094-3.778,6.87,6.87,0,0,0,1.029.084,5.762,5.762,0,0,0,1.434-.185,5.448,5.448,0,0,1-4.368-5.347v-.067a5.486,5.486,0,0,0,2.462.691,5.456,5.456,0,0,1-1.687-7.286,15.485,15.485,0,0,0,11.233,5.7,6.15,6.15,0,0,1-.135-1.248A5.453,5.453,0,0,1,22.381,49.8a10.725,10.725,0,0,0,3.458-1.316,5.433,5.433,0,0,1-2.395,3,10.921,10.921,0,0,0,3.137-.843,11.711,11.711,0,0,1-2.732,2.817Z" transform="translate(0 -48.082)"/>
</svg>
