<svg xmlns="http://www.w3.org/2000/svg" width="35" height="24.938" viewBox="0 0 35 24.938">
  <path id="volume-high-solid" d="M22.564,36.422A1.312,1.312,0,0,0,20.9,38.454a2.522,2.522,0,0,1,0,3.981,1.312,1.312,0,0,0,1.661,2.031,5.143,5.143,0,0,0,0-8.043Zm3.309-4.036a1.312,1.312,0,1,0-1.664,2.028,7.709,7.709,0,0,1,2.917,6.006,7.963,7.963,0,0,1-2.915,6.054A1.312,1.312,0,0,0,25.874,48.5a10.312,10.312,0,0,0,0-16.115ZM29.225,28.3a1.312,1.312,0,1,0-1.664,2.028,13.043,13.043,0,0,1,0,20.241,1.31,1.31,0,0,0-.183,1.845,1.22,1.22,0,0,0,1.017.528,1.31,1.31,0,0,0,.832-.3A15.71,15.71,0,0,0,35,40.42,15.512,15.512,0,0,0,29.225,28.3Zm-12.753.086a1.754,1.754,0,0,0-1.883.289L7.208,35.225H2.625A2.624,2.624,0,0,0,0,37.848v5.246a2.624,2.624,0,0,0,2.625,2.623H7.21l7.377,6.552a1.752,1.752,0,0,0,1.882.286,1.74,1.74,0,0,0,1.03-1.589V29.976A1.742,1.742,0,0,0,16.472,28.382Z" transform="translate(0 -28.001)" fill="#fff"/>
</svg>
