<?xml version="1.0" standalone="no"?>
<!DOCTYPE svg PUBLIC "-//W3C//DTD SVG 20010904//EN"
 "http://www.w3.org/TR/2001/REC-SVG-20010904/DTD/svg10.dtd">
<svg version="1.0" xmlns="http://www.w3.org/2000/svg"
 width="4000.000000pt" height="4000.000000pt" viewBox="0 0 4000.000000 4000.000000"
 preserveAspectRatio="xMidYMid meet">
<metadata>
Created by potrace 1.14, written by Peter Selinger 2001-2017
</metadata>
<g transform="translate(0.000000,4000.000000) scale(0.100000,-0.100000)"
fill="#000000" stroke="none">
<path d="M19916 33243 c-1 -1 -98 -5 -216 -8 -118 -4 -231 -8 -250 -10 -34 -2
-212 -15 -295 -20 -101 -7 -202 -16 -225 -20 -14 -2 -56 -7 -95 -11 -38 -4
-81 -8 -95 -9 -14 -2 -47 -6 -75 -9 -27 -3 -68 -8 -90 -11 -22 -3 -56 -8 -75
-10 -99 -12 -295 -41 -350 -51 -14 -3 -41 -7 -60 -10 -19 -2 -57 -9 -85 -14
-27 -5 -68 -13 -90 -16 -22 -4 -44 -8 -50 -10 -11 -2 -16 -3 -160 -34 -227
-48 -790 -196 -969 -255 -22 -7 -106 -34 -185 -59 -250 -80 -687 -239 -816
-296 -22 -10 -69 -30 -105 -45 -113 -47 -356 -162 -580 -275 -316 -158 -526
-273 -793 -434 -93 -55 -176 -105 -185 -111 -69 -40 -344 -218 -367 -237 -5
-4 -86 -63 -180 -130 -164 -117 -392 -287 -426 -318 -9 -8 -51 -42 -94 -75
-43 -33 -83 -65 -89 -70 -10 -9 -96 -81 -155 -130 -13 -11 -42 -36 -65 -56
l-40 -37 -23 31 c-13 17 -29 34 -35 39 -7 4 -9 8 -5 8 8 0 -2 14 -40 55 -13
13 -23 26 -23 29 0 3 -17 24 -37 47 -21 23 -48 53 -60 67 -13 14 -23 29 -23
34 0 5 -4 6 -10 3 -5 -3 -10 -1 -10 5 0 11 -34 50 -132 153 -32 34 -58 62 -58
64 0 4 -281 283 -285 283 -2 0 -17 12 -32 26 -15 14 -57 52 -92 83 -35 31 -81
73 -103 94 -22 20 -42 37 -45 37 -3 0 -18 14 -33 30 -15 17 -31 30 -34 30 -3
0 -18 12 -34 28 -15 15 -43 38 -60 52 -18 14 -49 39 -69 57 -20 17 -41 29 -46
26 -6 -4 -7 -1 -3 6 5 8 0 14 -13 18 -12 3 -21 10 -21 16 0 6 -3 7 -7 4 -3 -4
-12 2 -20 13 -8 11 -18 20 -23 20 -5 0 -23 13 -41 29 -18 17 -45 35 -61 42
-15 6 -28 15 -28 20 0 5 -4 9 -9 9 -5 0 -37 18 -70 40 -33 22 -73 45 -88 52
-15 7 -42 23 -59 35 -17 13 -34 20 -37 16 -4 -3 -7 -1 -7 5 0 7 -7 12 -15 12
-8 0 -15 3 -15 8 0 4 -25 18 -55 32 -30 14 -55 28 -55 32 0 5 -6 8 -14 8 -7 0
-26 10 -42 22 -16 13 -25 16 -20 8 4 -8 0 -6 -8 4 -9 11 -16 16 -16 12 0 -4
-12 1 -27 11 -51 33 -245 123 -267 123 -7 0 -16 3 -20 8 -4 4 -12 8 -17 8 -5
1 -11 3 -14 4 -3 1 -9 4 -15 5 -5 1 -11 3 -12 4 -6 5 -54 14 -75 15 -12 1 -19
3 -17 5 6 6 -169 50 -178 45 -5 -3 -8 0 -8 6 0 6 -6 10 -12 9 -7 -1 -20 0 -28
4 -8 3 -33 9 -55 13 -22 4 -47 8 -55 10 -8 1 -35 6 -60 9 -25 4 -61 9 -80 12
-95 14 -226 22 -355 22 -105 0 -210 -5 -210 -9 0 -2 -31 -6 -90 -10 -22 -2
-44 -6 -50 -9 -5 -3 -23 -6 -40 -8 -48 -6 -59 -8 -72 -16 -7 -5 -13 -6 -13 -3
0 2 -15 0 -32 -5 -18 -5 -45 -11 -59 -14 -39 -7 -213 -66 -223 -75 -5 -5 -15
-6 -22 -3 -8 3 -14 0 -14 -6 0 -6 -9 -11 -20 -11 -11 0 -20 -4 -20 -8 0 -5 -6
-9 -12 -9 -7 0 -31 -8 -53 -18 -22 -10 -46 -19 -53 -21 -8 -1 -22 -10 -31 -18
-10 -9 -21 -13 -24 -9 -4 3 -7 1 -7 -6 0 -7 -4 -10 -9 -7 -5 4 -11 3 -13 -1
-1 -5 -32 -23 -68 -42 -74 -38 -213 -129 -250 -163 -14 -13 -44 -37 -67 -54
-24 -17 -40 -34 -36 -37 3 -4 1 -7 -6 -7 -7 0 -57 -45 -112 -100 -56 -55 -99
-100 -96 -100 2 0 -18 -23 -45 -52 -26 -28 -46 -53 -44 -55 2 -2 -6 -14 -18
-27 -47 -49 -74 -84 -69 -90 3 -3 -2 -8 -11 -12 -9 -3 -14 -10 -11 -15 3 -4
-4 -13 -15 -19 -11 -6 -20 -16 -20 -23 0 -7 -9 -23 -20 -35 -11 -12 -20 -24
-20 -27 0 -3 -16 -27 -35 -52 -19 -25 -32 -49 -29 -54 3 -5 1 -9 -5 -9 -6 0
-18 -15 -27 -32 -9 -18 -23 -37 -30 -41 -8 -4 -14 -15 -14 -23 0 -9 -9 -27
-20 -41 -11 -14 -20 -32 -20 -39 0 -8 -5 -14 -11 -14 -6 0 -8 -7 -5 -16 3 -8
2 -12 -4 -9 -9 5 -12 -1 -9 -21 0 -4 -3 -10 -8 -13 -13 -10 -43 -68 -38 -75 3
-3 2 -4 -2 -1 -9 7 -44 -65 -37 -76 3 -5 1 -9 -3 -9 -7 0 -44 -68 -49 -90 0
-3 -11 -27 -24 -55 -13 -27 -24 -52 -25 -55 -8 -23 -27 -68 -35 -83 -6 -10 -8
-22 -5 -27 4 -6 1 -10 -5 -10 -6 0 -8 -4 -5 -10 3 -5 2 -10 -4 -10 -5 0 -13
-15 -17 -32 -3 -18 -13 -43 -21 -55 -9 -13 -12 -23 -8 -23 4 0 0 -11 -9 -25
-10 -15 -12 -25 -6 -25 7 0 4 -7 -4 -16 -9 -8 -19 -27 -22 -42 -3 -15 -8 -34
-11 -42 -4 -8 -7 -17 -8 -20 -1 -3 -7 -18 -14 -34 -6 -15 -12 -39 -13 -51 -1
-13 -6 -21 -10 -19 -4 3 -11 -13 -14 -36 -4 -22 -11 -40 -17 -40 -6 0 -8 -3
-4 -6 3 -3 1 -18 -5 -33 -5 -14 -12 -37 -15 -51 -2 -13 -9 -30 -14 -37 -6 -7
-8 -17 -4 -24 4 -6 3 -14 -2 -18 -9 -6 -27 -71 -73 -266 -7 -27 -13 -59 -14
-70 -1 -11 -4 -25 -8 -30 -3 -6 -9 -29 -12 -51 -4 -22 -9 -51 -12 -64 -3 -14
-8 -38 -11 -55 -3 -16 -9 -37 -13 -45 -5 -9 -4 -24 2 -34 6 -10 6 -16 1 -13
-8 5 -31 -81 -39 -148 -1 -11 -3 -21 -4 -22 -2 -2 -4 -12 -5 -23 -1 -11 -3
-21 -5 -22 -1 -2 -3 -12 -5 -23 -2 -11 -7 -33 -10 -50 -4 -16 -8 -42 -8 -57 0
-16 -3 -28 -7 -28 -3 0 -7 -12 -8 -27 -3 -38 -10 -71 -17 -83 -3 -6 0 -10 7
-10 8 0 9 -3 3 -8 -13 -9 -18 -27 -20 -73 -1 -20 -5 -40 -8 -46 -3 -5 -8 -29
-11 -54 -3 -24 -10 -67 -14 -95 -5 -28 -7 -59 -6 -68 1 -9 -1 -16 -5 -16 -4 0
-8 -12 -8 -27 -2 -33 -11 -118 -13 -118 -1 0 -3 -18 -5 -40 -1 -22 -4 -40 -5
-40 -1 0 -4 -18 -6 -40 -2 -22 -6 -60 -9 -85 -3 -25 -7 -70 -10 -100 -2 -30
-5 -55 -6 -55 -2 0 -11 -96 -12 -142 -1 -24 -4 -43 -7 -43 -3 0 -6 -15 -6 -32
-1 -18 -4 -62 -8 -98 -3 -36 -9 -94 -12 -130 -3 -36 -7 -81 -10 -100 -3 -19
-7 -64 -9 -100 -2 -36 -6 -110 -10 -165 -4 -55 -7 -106 -6 -112 0 -7 1 -21 0
-30 -5 -172 3 -459 16 -568 3 -27 8 -70 9 -95 2 -25 5 -45 6 -45 1 0 3 -16 4
-36 2 -20 6 -41 10 -47 4 -7 2 -12 -4 -12 -6 0 -8 -5 -4 -12 5 -7 9 -19 10
-28 1 -8 5 -32 8 -52 3 -21 8 -53 10 -70 3 -18 7 -46 11 -63 4 -16 7 -36 7
-42 1 -7 4 -13 7 -13 4 0 6 -12 5 -27 -1 -16 1 -32 5 -38 3 -5 6 -13 7 -17 1
-5 3 -9 4 -10 1 -2 3 -14 5 -28 1 -14 8 -38 14 -55 7 -16 12 -31 12 -32 -1 -3
-1 -5 3 -20 16 -61 30 -104 43 -132 8 -18 16 -39 17 -45 4 -25 70 -156 78
-156 5 0 7 -4 3 -9 -3 -5 -1 -12 5 -16 6 -4 7 -11 4 -17 -4 -6 -3 -8 3 -5 5 4
16 -6 24 -21 7 -15 26 -43 41 -63 15 -20 28 -40 28 -43 0 -3 8 -14 18 -25 9
-10 27 -31 39 -47 39 -52 82 -94 94 -94 7 0 9 -3 6 -6 -4 -4 9 -19 28 -34 19
-15 32 -30 28 -34 -3 -3 -2 -6 4 -6 9 0 38 -21 110 -80 7 -6 17 -10 23 -10 5
0 10 -5 10 -12 0 -6 3 -9 6 -5 4 3 12 1 20 -6 33 -30 42 -35 48 -30 3 4 6 1 6
-5 0 -13 200 -113 212 -106 13 8 9 -14 -5 -26 -24 -20 -131 -116 -164 -147
-19 -18 -39 -33 -43 -33 -5 0 -12 -9 -15 -21 -4 -11 -9 -18 -12 -15 -3 2 -29
-19 -59 -49 -30 -29 -54 -50 -54 -47 -1 4 -7 -4 -15 -18 -8 -14 -14 -22 -15
-18 0 4 -59 -51 -130 -122 -72 -72 -135 -130 -140 -130 -6 0 -10 -6 -10 -13 0
-7 -13 -23 -29 -37 -17 -13 -28 -28 -25 -32 3 -5 1 -7 -4 -6 -5 2 -38 -27 -74
-64 -36 -38 -63 -68 -59 -68 3 -1 -5 -7 -19 -15 -14 -8 -22 -14 -18 -15 4 0
-16 -24 -45 -53 -79 -80 -152 -169 -149 -179 1 -5 -1 -7 -6 -4 -8 5 -72 -58
-72 -70 0 -6 -68 -81 -92 -102 -9 -9 -15 -19 -12 -23 2 -4 -5 -10 -16 -14 -11
-4 -18 -10 -15 -14 2 -4 -6 -17 -18 -28 -12 -11 -33 -35 -47 -52 -14 -18 -36
-45 -50 -60 -14 -16 -34 -41 -45 -55 -11 -15 -34 -43 -52 -62 -18 -19 -32 -37
-32 -40 1 -3 -10 -18 -23 -32 -12 -15 -36 -45 -53 -67 -16 -22 -33 -42 -37
-43 -5 -2 -6 -8 -3 -12 3 -5 -4 -14 -16 -20 -11 -7 -18 -14 -15 -17 3 -4 -3
-13 -14 -20 -11 -8 -18 -19 -15 -24 4 -5 2 -9 -4 -9 -5 0 -13 -9 -16 -20 -4
-11 -10 -18 -15 -15 -4 3 -15 -10 -23 -28 -9 -18 -25 -41 -36 -51 -11 -10 -18
-23 -15 -27 3 -5 1 -9 -4 -9 -5 0 -22 -19 -38 -42 -16 -24 -34 -49 -41 -58
-51 -65 -83 -112 -83 -120 0 -6 -4 -10 -8 -10 -5 0 -14 -10 -21 -22 -6 -13
-25 -41 -41 -63 -17 -22 -35 -50 -40 -62 -5 -13 -14 -23 -20 -23 -6 0 -9 -4
-6 -9 4 -5 3 -11 -1 -13 -11 -4 -73 -96 -73 -107 0 -5 -7 -12 -16 -15 -8 -3
-12 -10 -9 -16 3 -5 1 -10 -4 -10 -6 0 -11 -7 -11 -15 0 -8 -3 -15 -8 -15 -4
0 -16 -17 -27 -37 -11 -21 -24 -41 -30 -45 -5 -4 -10 -12 -10 -18 0 -6 -5 -14
-10 -18 -13 -8 -47 -62 -41 -62 3 0 -6 -12 -19 -26 -14 -15 -25 -33 -25 -40 0
-8 -3 -14 -7 -14 -5 0 -21 -23 -36 -50 -16 -28 -33 -50 -38 -50 -6 0 -7 -4 -4
-10 3 -5 1 -10 -5 -10 -6 0 -9 -4 -6 -9 4 -5 3 -11 -2 -13 -4 -1 -25 -30 -46
-63 -22 -33 -52 -79 -68 -103 -15 -24 -28 -45 -28 -48 0 -2 -13 -23 -30 -45
-16 -23 -27 -46 -23 -52 3 -6 1 -7 -5 -3 -7 4 -14 -3 -18 -19 -3 -14 -10 -25
-14 -25 -4 0 -15 -15 -24 -32 -21 -42 -38 -69 -53 -86 -7 -7 -13 -18 -13 -23
0 -6 -6 -17 -12 -24 -30 -34 -38 -45 -32 -45 4 0 -1 -9 -11 -20 -10 -11 -14
-20 -9 -20 5 0 0 -7 -10 -15 -11 -8 -16 -15 -10 -15 5 0 4 -4 -1 -8 -14 -9
-70 -106 -64 -110 2 -2 -4 -8 -13 -13 -10 -6 -18 -18 -18 -28 0 -11 -7 -21
-15 -25 -8 -3 -15 -15 -15 -26 0 -11 -4 -20 -10 -20 -5 0 -12 -11 -16 -25 -3
-14 -9 -25 -13 -25 -4 0 -19 -24 -34 -52 -37 -70 -50 -92 -62 -100 -5 -4 -6
-8 -2 -8 4 0 -6 -20 -23 -45 -17 -25 -27 -45 -23 -45 4 0 4 -4 -2 -8 -18 -13
-46 -72 -40 -82 4 -6 1 -9 -7 -8 -8 2 -13 -6 -12 -19 1 -13 -3 -23 -9 -23 -6
0 -8 -3 -4 -6 3 -3 -1 -25 -10 -47 -8 -23 -16 -46 -17 -52 -1 -5 -8 -20 -14
-32 -7 -13 -9 -23 -5 -23 4 0 3 -4 -3 -8 -16 -10 -120 -232 -109 -232 2 0 -2
-15 -10 -34 l-14 -33 42 14 c23 8 48 19 54 25 7 6 13 8 13 4 0 -3 23 8 50 24
28 17 54 30 59 30 4 0 17 9 29 20 12 12 22 17 22 13 0 -4 4 -3 8 2 9 12 133
75 148 75 6 0 24 10 40 22 15 13 25 17 20 10 -4 -6 -3 -12 2 -12 6 0 13 7 16
16 3 8 11 12 17 8 8 -4 9 -3 5 4 -4 8 0 12 11 12 15 0 16 2 3 10 -13 8 -13 10
2 10 9 0 21 6 25 13 12 19 79 58 86 50 4 -3 7 -1 7 6 0 7 4 10 9 7 10 -6 61
16 61 27 0 4 8 7 17 7 9 0 24 7 33 15 9 8 53 39 98 68 45 30 79 57 74 62 -4 4
-2 5 5 2 6 -4 18 0 26 8 9 8 18 15 21 15 8 0 131 84 134 93 2 4 7 5 12 2 4 -2
18 4 30 15 12 11 35 25 51 32 16 7 29 15 29 19 0 3 16 11 35 19 19 8 35 18 35
22 0 5 4 6 10 3 5 -3 10 -1 10 4 0 6 7 11 15 11 7 0 18 8 24 18 5 9 12 15 16
13 9 -5 65 20 65 29 0 4 11 11 25 14 14 4 25 11 25 17 0 6 5 7 12 3 6 -4 17 1
24 10 7 10 15 17 18 17 11 -2 191 91 197 101 3 5 9 9 13 9 5 -1 109 44 129 56
10 6 -52 -99 -67 -112 -6 -6 -22 -31 -36 -58 -13 -26 -28 -47 -31 -47 -6 0
-19 -37 -18 -48 0 -2 -10 -12 -22 -23 -12 -10 -19 -19 -15 -19 4 0 -6 -19 -23
-42 -17 -22 -28 -45 -25 -50 3 -4 1 -8 -4 -8 -8 0 -44 -57 -77 -121 -5 -10
-13 -19 -17 -19 -5 0 -8 -6 -8 -14 0 -8 -6 -21 -13 -28 -6 -7 -21 -30 -32 -50
-11 -21 -22 -38 -26 -38 -7 0 -22 -39 -20 -52 1 -5 -3 -8 -7 -8 -5 0 -21 -22
-36 -50 -15 -27 -31 -52 -37 -55 -5 -4 -7 -10 -4 -15 3 -4 -2 -13 -10 -20 -8
-7 -15 -18 -15 -25 0 -7 -7 -16 -16 -19 -8 -3 -13 -10 -10 -15 4 -5 -1 -16 -9
-24 -8 -9 -15 -20 -15 -24 0 -5 -11 -24 -25 -43 -13 -18 -22 -37 -19 -41 3 -5
1 -9 -4 -9 -5 0 -20 -21 -33 -47 -13 -27 -30 -54 -36 -61 -7 -7 -13 -18 -13
-24 0 -5 -9 -22 -20 -38 -11 -15 -17 -30 -13 -34 3 -3 1 -6 -6 -6 -7 0 -9 -4
-6 -10 3 -5 1 -10 -4 -10 -6 0 -11 -6 -11 -13 0 -8 -9 -24 -20 -37 -11 -12
-17 -26 -15 -30 3 -4 -2 -13 -10 -20 -8 -7 -15 -21 -15 -31 0 -11 -5 -19 -11
-19 -5 0 -7 -4 -4 -10 3 -5 1 -10 -6 -10 -7 0 -9 -3 -6 -6 3 -4 -3 -18 -13
-32 -11 -13 -20 -31 -20 -39 0 -7 -10 -27 -21 -42 -12 -16 -18 -34 -15 -40 4
-6 2 -11 -3 -11 -6 0 -11 -7 -11 -15 0 -8 -5 -15 -11 -15 -5 0 -7 -4 -4 -10 3
-5 1 -10 -6 -10 -7 0 -9 -3 -6 -6 3 -4 1 -16 -5 -28 -7 -11 -11 -24 -10 -28 1
-5 -3 -8 -9 -8 -5 0 -7 -4 -4 -10 3 -5 2 -10 -4 -10 -5 0 -12 -13 -16 -30 -4
-16 -10 -30 -14 -30 -4 0 -7 -10 -8 -21 -1 -12 -9 -29 -17 -38 -9 -10 -16 -24
-16 -32 0 -8 -7 -24 -15 -35 -8 -12 -11 -24 -8 -28 3 -3 1 -6 -5 -6 -7 0 -11
-3 -10 -7 1 -5 -9 -30 -21 -58 -37 -82 -44 -100 -43 -107 1 -5 -2 -8 -7 -8 -5
0 -12 -13 -16 -30 -4 -16 -11 -30 -17 -30 -6 0 -9 -3 -5 -6 3 -4 -1 -21 -10
-38 -9 -17 -18 -35 -19 -41 -1 -5 -10 -28 -20 -50 -10 -22 -17 -43 -16 -47 1
-5 -3 -8 -8 -8 -5 0 -9 -3 -8 -7 1 -5 -5 -21 -12 -38 -7 -16 -14 -32 -14 -35
-1 -3 -5 -11 -9 -17 -5 -7 -5 -13 -1 -13 4 0 -1 -9 -11 -20 -10 -11 -15 -20
-11 -20 4 0 1 -10 -6 -22 -7 -13 -13 -25 -14 -28 0 -3 -7 -21 -15 -40 -7 -19
-12 -38 -11 -42 1 -5 -3 -8 -9 -8 -6 0 -8 -7 -5 -15 3 -9 0 -18 -8 -21 -7 -3
-13 -10 -14 -17 -4 -45 -11 -69 -26 -86 -9 -10 -16 -22 -14 -27 1 -5 -4 -20
-12 -34 -7 -14 -12 -25 -11 -25 1 0 -3 -13 -9 -30 -7 -16 -13 -34 -14 -40 -1
-5 -8 -20 -14 -32 -7 -13 -10 -23 -6 -23 3 0 0 -10 -9 -23 -8 -12 -18 -38 -22
-57 -4 -19 -11 -39 -15 -45 -4 -5 -13 -31 -21 -57 -7 -27 -16 -48 -20 -48 -3
0 -6 -6 -6 -12 -1 -7 -6 -28 -11 -45 -6 -18 -8 -33 -4 -33 4 0 2 -4 -5 -8 -6
-4 -14 -19 -17 -32 -3 -14 -14 -50 -26 -80 -25 -64 -25 -65 -35 -108 -4 -18
-12 -35 -16 -38 -5 -3 -6 -10 -3 -16 4 -6 1 -14 -5 -18 -7 -4 -13 -18 -15 -31
-1 -14 -5 -29 -8 -34 -4 -8 -47 -139 -53 -165 -1 -3 -7 -18 -13 -33 -7 -16
-12 -32 -12 -37 0 -9 -25 -90 -37 -120 -4 -8 -7 -22 -8 -30 -2 -15 -7 -32 -26
-78 -5 -13 -7 -28 -4 -33 4 -5 2 -9 -3 -9 -5 0 -13 -15 -17 -32 -4 -18 -9 -40
-11 -48 -3 -8 -5 -23 -6 -32 -1 -10 -6 -18 -11 -18 -5 0 -7 -11 -5 -24 1 -13
-2 -29 -8 -37 -11 -14 -32 -82 -39 -125 -1 -12 -8 -31 -14 -43 -7 -12 -9 -26
-6 -31 3 -6 2 -10 -2 -10 -7 0 -17 -32 -38 -120 -2 -8 -8 -27 -14 -42 -6 -16
-8 -28 -5 -28 4 0 2 -6 -4 -12 -5 -7 -13 -34 -17 -60 -4 -27 -11 -48 -15 -48
-5 0 -7 -8 -6 -17 2 -10 -1 -25 -5 -33 -13 -26 -52 -201 -45 -207 3 -3 1 -12
-4 -19 -10 -11 -18 -37 -25 -79 -2 -11 -4 -20 -5 -20 -1 0 -3 -7 -5 -15 -4
-22 -16 -82 -20 -105 -2 -11 -6 -33 -10 -50 -3 -16 -8 -39 -10 -50 -2 -11 -6
-31 -9 -45 -3 -14 -9 -41 -12 -60 -4 -19 -11 -43 -16 -54 -7 -14 -7 -16 2 -11
9 6 9 2 1 -14 -7 -11 -10 -21 -7 -21 2 0 0 -15 -4 -32 -5 -18 -12 -48 -15 -65
-3 -18 -8 -48 -11 -65 -4 -18 -8 -46 -9 -63 -2 -16 -4 -30 -5 -30 -1 0 -3 -12
-4 -28 -2 -15 -6 -30 -9 -34 -4 -3 -1 -13 6 -21 10 -13 9 -14 -2 -7 -11 6 -13
4 -8 -8 3 -9 1 -19 -5 -23 -7 -4 -6 -9 3 -15 8 -5 9 -9 3 -9 -6 0 -11 -12 -12
-27 0 -16 -1 -30 -2 -33 -1 -3 -3 -16 -5 -30 -1 -14 -5 -45 -8 -70 -4 -25 -9
-67 -12 -95 -8 -71 -10 -79 -18 -92 -4 -6 -3 -14 3 -18 6 -4 7 -11 4 -17 -4
-6 -8 -21 -9 -32 -2 -12 -6 -46 -10 -76 -4 -30 -9 -71 -11 -90 -2 -19 -5 -48
-8 -65 -2 -16 -7 -57 -10 -90 -4 -33 -9 -78 -13 -100 -3 -22 -6 -61 -7 -87 -1
-27 -4 -48 -7 -48 -3 0 -5 -18 -4 -40 1 -22 -1 -40 -4 -40 -4 0 -7 -15 -7 -32
-2 -41 -12 -161 -19 -208 -10 -75 -16 -138 -20 -195 -3 -33 -7 -85 -10 -115
-9 -96 -16 -173 -20 -227 -2 -29 -7 -57 -10 -63 -3 -5 -1 -10 5 -10 6 0 8 -5
3 -12 -4 -7 -8 -24 -9 -38 -1 -14 -5 -63 -9 -110 -4 -47 -7 -115 -8 -152 -1
-38 -4 -68 -7 -68 -7 0 -3 -76 5 -110 19 -80 24 -121 30 -244 2 -54 9 -124 16
-155 6 -31 11 -66 11 -79 0 -22 1 -22 28 6 31 33 120 158 120 170 0 4 9 19 20
32 10 14 44 60 73 102 30 43 56 76 58 73 3 -2 11 11 18 30 7 21 17 33 23 29 7
-4 8 -2 4 4 -4 6 2 20 14 32 11 11 20 27 20 36 0 10 6 14 15 10 10 -4 15 1 15
14 0 11 4 20 10 20 5 0 12 11 16 25 3 14 10 25 14 25 7 0 14 17 18 43 1 4 8
15 17 23 8 9 15 22 15 30 0 9 7 22 15 30 8 9 18 27 22 42 3 15 9 29 12 32 4 3
28 48 55 100 27 52 62 120 79 150 17 30 37 69 46 85 8 17 17 32 20 35 3 3 13
19 21 35 8 17 23 39 33 50 10 10 15 25 13 32 -3 7 -1 13 3 13 11 0 57 72 53
83 -1 4 2 7 7 7 5 0 14 14 21 30 7 16 17 30 23 30 6 0 8 3 4 6 -3 4 -1 12 6
20 29 32 37 44 32 44 -4 0 8 21 26 48 64 94 69 101 69 112 0 5 5 10 10 10 6 0
10 4 10 9 0 12 81 135 92 139 4 2 8 10 8 18 0 8 4 14 9 14 5 0 12 11 15 25 4
16 11 23 18 19 8 -5 9 -2 5 9 -3 10 -2 17 3 17 5 0 26 25 46 55 20 30 41 55
46 55 5 0 6 4 3 10 -3 6 -1 10 4 10 6 0 11 7 11 15 0 8 4 15 9 15 4 0 27 28
50 62 22 33 41 57 41 52 0 -5 5 -1 11 8 5 10 9 20 9 23 -1 4 10 15 24 26 14
11 25 26 23 32 -1 7 3 11 10 10 6 -2 15 6 18 17 4 11 11 20 16 20 6 0 7 5 4
10 -3 6 -2 10 3 10 5 0 30 26 55 57 25 32 62 76 82 98 20 22 59 66 88 99 29
32 68 75 87 96 19 20 67 72 105 115 39 43 100 109 137 147 36 37 63 68 60 68
-4 0 7 9 23 20 17 11 27 20 24 20 -3 0 20 26 50 58 31 32 57 57 59 56 2 -1 24
21 50 49 71 78 72 79 72 74 0 -2 24 19 53 47 56 55 143 129 158 134 5 2 9 11
9 19 0 9 3 14 6 10 5 -5 28 10 63 43 9 8 30 25 46 37 l30 21 0 -42 c-1 -23 -4
-47 -9 -54 -4 -7 -2 -12 4 -12 6 0 8 -5 4 -12 -4 -6 -9 -41 -10 -77 -1 -36 -5
-111 -8 -166 -17 -298 -19 -387 -19 -680 0 -176 4 -381 7 -455 4 -74 8 -169
10 -211 2 -42 5 -80 7 -85 3 -5 4 -34 4 -64 0 -30 4 -58 10 -62 6 -5 5 -8 -3
-8 -8 0 -10 -5 -6 -12 5 -7 9 -33 11 -58 5 -99 12 -185 13 -185 1 0 3 -22 5
-50 1 -27 4 -50 5 -50 1 0 2 -26 3 -57 1 -32 4 -58 7 -58 3 0 6 -24 6 -53 3
-96 7 -126 17 -120 5 3 4 -4 -2 -14 -6 -11 -9 -22 -6 -24 2 -2 6 -33 9 -69 10
-101 13 -120 19 -127 4 -3 2 -14 -3 -24 -6 -10 -6 -20 -2 -23 4 -2 9 -23 10
-44 2 -22 5 -55 7 -73 11 -80 18 -146 19 -171 1 -16 3 -28 6 -28 3 0 5 -12 6
-27 0 -16 4 -53 8 -83 4 -30 10 -68 12 -85 4 -31 12 -80 20 -125 2 -14 6 -41
8 -60 2 -19 5 -35 6 -35 1 0 3 -16 6 -35 2 -19 6 -46 10 -60 3 -14 8 -36 10
-50 12 -71 14 -88 19 -125 3 -22 9 -47 12 -55 5 -14 10 -40 17 -95 1 -12 6
-26 10 -33 4 -7 5 -12 3 -12 -2 0 0 -19 5 -42 5 -24 11 -59 14 -78 3 -19 8
-42 11 -50 3 -8 7 -26 9 -40 2 -14 9 -47 16 -75 15 -62 13 -50 22 -113 4 -28
11 -52 14 -52 4 0 8 -21 10 -47 1 -26 6 -50 10 -53 4 -3 8 -21 10 -40 1 -19 6
-37 10 -40 7 -5 10 -25 13 -77 1 -13 5 -23 9 -23 4 0 6 -10 5 -23 -1 -12 4
-37 12 -55 7 -18 12 -36 11 -40 -3 -17 15 -93 23 -98 5 -3 7 -9 5 -13 -3 -4 0
-25 6 -47 6 -21 11 -45 9 -52 -1 -6 2 -12 6 -12 4 0 9 -10 10 -22 1 -27 7 -56
37 -183 8 -33 15 -60 16 -60 1 0 3 -9 5 -20 5 -26 13 -60 15 -60 1 0 3 -11 5
-25 5 -29 10 -49 17 -70 5 -14 26 -95 33 -130 2 -8 4 -15 5 -15 1 0 3 -9 5
-20 6 -36 28 -110 34 -115 6 -5 7 -14 13 -63 1 -9 5 -17 8 -17 3 0 7 -12 8
-27 1 -15 6 -29 11 -32 4 -3 7 -14 5 -23 -1 -10 1 -18 5 -18 4 0 8 -6 9 -12 0
-7 3 -24 7 -38 4 -14 7 -31 7 -37 1 -7 5 -13 10 -13 4 0 7 -3 6 -7 -2 -11 40
-154 52 -175 6 -10 10 -29 10 -42 0 -14 4 -27 9 -30 4 -3 12 -20 16 -38 4 -18
9 -40 12 -48 2 -8 5 -21 5 -27 1 -7 5 -13 10 -13 4 0 7 -3 6 -7 -3 -12 23 -97
33 -109 5 -7 9 -16 7 -20 -1 -5 3 -19 10 -32 7 -12 11 -22 8 -22 -9 0 54 -165
64 -168 6 -2 7 -8 4 -14 -4 -5 -2 -20 4 -31 16 -34 25 -61 24 -69 -1 -5 2 -8
6 -8 5 0 9 -6 9 -12 0 -11 37 -108 88 -233 5 -11 7 -23 7 -27 -1 -5 3 -8 8 -8
5 0 9 -3 8 -7 -3 -12 44 -133 53 -139 4 -2 6 -11 2 -19 -3 -8 0 -15 7 -15 6 0
9 -4 5 -9 -3 -5 0 -15 7 -23 7 -7 14 -20 16 -28 1 -8 9 -31 17 -50 25 -61 38
-95 41 -110 2 -8 7 -16 13 -18 5 -2 7 -10 4 -18 -3 -8 0 -14 6 -14 6 0 11 -10
11 -23 0 -13 4 -27 8 -32 5 -6 24 -48 42 -95 19 -47 40 -96 47 -109 6 -14 10
-28 7 -33 -3 -4 0 -8 5 -8 6 0 11 -11 11 -25 0 -14 4 -25 8 -25 4 0 14 -17 22
-37 7 -21 20 -54 28 -73 9 -19 17 -39 18 -45 1 -5 12 -32 25 -60 13 -27 22
-53 21 -57 -1 -5 2 -8 8 -8 5 0 10 -11 10 -25 0 -14 5 -25 10 -25 6 0 10 -9
10 -19 0 -10 13 -44 29 -75 17 -31 28 -56 25 -56 -2 0 3 -11 12 -25 9 -14 14
-25 10 -25 -3 0 3 -17 13 -38 11 -20 29 -59 41 -87 36 -81 47 -107 74 -168 14
-32 26 -62 26 -67 0 -6 5 -10 11 -10 5 0 8 -3 6 -8 -3 -4 3 -25 14 -46 10 -22
19 -45 19 -52 0 -7 5 -14 10 -16 6 -2 12 -13 15 -26 2 -12 11 -37 21 -54 30
-59 34 -68 34 -82 0 -7 7 -19 15 -26 9 -7 13 -15 11 -17 -6 -7 43 -94 64 -114
9 -9 27 -43 40 -75 14 -33 28 -63 32 -69 4 -5 16 -21 27 -35 l18 -24 32 31
c17 17 31 36 31 41 0 5 20 30 44 56 78 84 131 174 142 241 2 11 13 54 24 95
11 41 23 88 26 104 3 16 7 32 9 36 2 3 7 20 10 36 7 35 13 61 21 94 3 14 7 34
7 45 1 11 5 22 9 26 4 3 10 21 12 40 3 18 5 34 6 34 2 0 5 12 13 50 3 11 12
46 20 78 8 31 13 57 10 57 -3 0 0 7 7 15 10 12 10 15 -1 15 -10 0 -10 3 -3 8
13 8 20 30 29 81 3 19 8 37 10 41 2 3 6 17 9 31 7 34 14 60 25 96 5 17 7 34 3
37 -3 3 -1 6 4 6 5 0 10 10 10 23 2 29 8 49 17 65 5 6 6 12 3 12 -2 0 0 15 6
33 9 31 19 79 21 105 0 6 5 12 10 12 5 0 7 7 4 15 -4 8 -2 17 4 21 6 3 8 13 4
22 -3 8 -2 18 3 21 7 5 35 103 48 171 2 14 9 36 14 50 5 14 12 36 14 50 3 14
9 40 15 58 5 18 10 33 10 35 0 1 2 9 5 17 6 19 28 104 27 107 0 2 6 21 14 43
8 22 14 41 14 43 0 1 2 9 4 17 3 8 11 38 18 65 6 28 15 55 18 60 3 6 7 19 8
30 2 11 10 37 18 58 8 20 13 37 11 37 -2 0 4 23 15 51 10 29 16 56 13 60 -3 5
0 9 6 9 7 0 10 7 6 15 -3 8 -1 15 4 15 6 0 10 10 10 23 0 12 7 42 16 67 17 49
25 78 26 98 1 6 5 12 10 12 4 0 7 3 7 8 -1 4 0 9 1 12 3 10 11 45 12 58 1 6 5
12 10 12 4 0 7 3 6 8 -1 4 9 41 22 82 13 41 23 78 22 83 -1 4 3 7 8 7 5 0 9 3
8 8 -4 12 46 157 57 164 5 4 7 8 3 8 -8 0 54 189 73 223 5 10 7 22 4 27 -3 4
-2 10 2 12 5 1 19 35 32 73 13 39 27 74 32 79 4 5 5 15 2 22 -3 8 1 14 8 14 7
0 10 3 7 6 -4 3 6 36 21 72 15 37 28 69 29 72 0 3 5 17 11 31 5 15 11 35 13
45 2 11 6 22 11 25 4 3 9 14 11 25 5 23 42 127 62 171 8 17 14 37 14 45 0 8 3
18 7 22 13 12 42 99 37 108 -3 4 -1 8 4 8 5 0 15 19 22 43 8 23 22 57 32 75
10 19 14 31 8 27 -6 -3 -7 0 -4 9 3 9 10 16 16 16 5 0 6 5 3 10 -3 6 -1 10 4
10 6 0 10 3 9 7 -3 14 14 83 21 83 3 0 12 19 19 43 14 43 36 97 53 130 5 10 7
22 4 27 -4 6 -2 10 3 10 9 0 27 47 24 63 -1 4 3 7 9 7 5 0 8 4 4 9 -3 5 -1 12
5 16 5 3 10 15 10 26 0 10 5 19 12 19 6 0 9 3 5 6 -3 4 0 19 9 35 8 16 11 29
7 29 -5 0 -2 4 4 8 7 4 14 17 16 28 1 10 12 38 25 62 12 23 19 42 16 42 -2 0
1 10 8 23 7 12 13 24 13 27 1 3 8 19 15 35 7 17 14 32 15 35 9 27 28 70 41 93
8 15 12 27 8 27 -3 0 -1 6 5 13 6 8 8 17 4 20 -3 4 -1 7 5 7 7 0 12 5 12 11 0
6 6 25 14 42 8 18 22 50 32 72 9 22 18 42 19 45 5 9 17 49 18 57 1 4 8 16 16
25 8 9 16 23 17 30 1 7 13 39 27 71 15 31 27 61 27 65 1 4 6 13 12 20 6 6 7
12 2 12 -5 0 -3 4 3 8 7 4 14 17 16 27 1 11 7 27 12 35 24 36 34 63 29 71 -3
5 -1 9 3 9 5 0 17 19 28 43 10 23 32 71 48 107 17 36 31 67 32 70 1 3 7 19 14
35 7 17 12 32 11 34 -1 2 2 7 7 10 8 5 56 101 62 123 1 4 13 29 26 54 14 26
22 50 19 55 -3 5 0 9 5 9 9 0 38 54 41 78 1 4 9 15 18 26 9 10 16 20 15 22 -4
6 31 78 40 85 5 3 8 8 6 10 -1 2 8 23 20 47 12 23 19 48 15 54 -4 6 -3 8 3 5
11 -7 36 43 36 69 0 7 4 11 8 9 7 -5 33 53 30 68 0 4 2 7 7 7 4 0 13 15 21 33
8 17 23 44 33 60 11 15 17 27 14 27 -4 0 5 18 18 39 14 21 22 42 19 45 -4 3
-1 6 5 6 7 0 11 3 10 8 -2 4 7 23 19 42 12 19 23 42 25 50 2 8 10 21 18 28 13
12 13 13 0 6 -12 -6 -11 -3 2 12 9 10 22 30 28 44 6 14 33 66 60 115 28 50 57
107 66 128 9 20 20 37 25 37 5 0 9 7 9 16 0 9 9 29 21 45 11 16 17 29 12 29
-4 0 -3 4 2 8 6 4 17 21 25 37 8 17 21 36 28 43 6 7 12 20 12 27 0 7 7 21 16
29 9 9 17 23 18 30 1 8 8 21 15 30 7 9 10 16 5 16 -5 0 -4 4 2 8 13 8 59 94
56 105 -1 4 3 7 8 7 6 0 15 10 20 23 6 12 14 29 18 37 26 46 33 59 54 100 13
25 26 47 29 50 4 3 17 25 29 50 12 25 25 47 29 50 3 3 13 19 21 35 8 17 21 38
29 48 8 9 11 17 7 17 -4 0 0 7 8 16 9 8 14 20 11 25 -4 5 -1 9 5 9 11 0 31
-19 110 -110 26 -30 59 -67 72 -81 12 -14 59 -66 103 -115 102 -113 335 -347
444 -444 46 -41 89 -80 95 -85 6 -6 42 -37 80 -70 38 -33 81 -71 95 -84 14
-13 78 -67 141 -120 63 -53 126 -105 140 -117 42 -36 325 -268 351 -287 13
-10 67 -49 119 -87 52 -38 100 -74 106 -79 41 -34 401 -267 544 -353 1222
-731 2112 -1114 3265 -1404 77 -20 147 -37 155 -39 8 -2 87 -19 175 -39 179
-40 246 -54 290 -61 17 -3 95 -16 175 -30 129 -21 185 -30 255 -40 17 -3 237
-31 390 -51 90 -11 119 -14 290 -29 33 -3 85 -7 115 -10 92 -8 205 -15 475
-31 140 -8 622 -8 782 0 189 9 292 15 358 21 33 3 92 7 130 10 39 3 90 7 115
10 25 2 77 7 115 10 68 6 97 9 180 19 22 3 112 14 200 25 170 22 225 29 265
36 14 3 43 7 65 11 22 3 101 16 175 29 74 13 149 27 167 30 25 4 196 40 283
60 252 57 586 146 865 230 180 55 297 94 580 195 57 20 377 148 445 178 25 11
74 33 110 49 36 17 88 40 115 53 67 29 557 273 620 308 28 16 86 48 130 71
155 84 190 104 209 120 10 9 19 14 20 12 1 -5 87 42 128 70 15 11 30 19 32 19
3 0 52 28 108 61 57 34 117 69 134 79 82 47 310 191 331 210 7 5 14 10 17 10
11 0 419 289 436 309 3 3 32 26 64 51 33 25 73 57 90 71 17 15 119 100 226
189 107 88 222 186 256 215 33 30 71 64 85 76 274 238 492 453 719 709 8 9 43
48 77 86 34 38 75 85 92 104 l30 35 13 -30 c7 -17 26 -49 41 -72 15 -24 27
-46 27 -51 0 -4 8 -17 18 -28 20 -21 21 -23 29 -54 3 -11 10 -20 15 -20 5 0 7
-4 4 -8 -3 -5 2 -18 12 -28 9 -11 18 -26 20 -34 2 -8 7 -17 10 -20 8 -6 34
-53 83 -147 19 -38 36 -60 43 -56 6 3 8 3 4 -2 -4 -4 -3 -14 3 -22 6 -7 8 -13
5 -13 -4 0 2 -13 13 -29 12 -16 21 -33 21 -38 0 -4 9 -19 20 -33 11 -14 20
-33 20 -42 0 -10 3 -18 8 -18 4 0 12 -10 18 -23 42 -87 117 -223 125 -225 5
-2 7 -8 3 -13 -3 -5 0 -9 6 -9 6 0 9 -4 5 -9 -3 -5 1 -15 8 -23 14 -14 16 -17
24 -48 3 -11 10 -20 15 -20 5 0 6 -4 3 -10 -3 -6 -1 -10 5 -10 6 0 8 -4 5 -10
-3 -5 -1 -10 5 -10 6 0 8 -5 5 -10 -3 -5 -1 -10 4 -10 6 0 11 -6 11 -14 0 -8
8 -22 18 -32 9 -10 16 -19 14 -21 -6 -6 22 -63 31 -63 5 0 6 -4 3 -8 -3 -5 5
-20 17 -33 12 -13 21 -26 20 -29 -4 -7 8 -44 16 -50 3 -3 28 -50 55 -105 28
-55 54 -103 59 -106 5 -3 8 -10 8 -15 -1 -18 11 -44 18 -40 4 3 8 -1 8 -8 0
-22 25 -76 34 -76 5 0 8 -3 7 -7 -4 -15 14 -53 24 -53 6 0 9 -3 5 -6 -3 -4 16
-51 44 -105 27 -55 46 -99 42 -99 -5 0 -3 -4 3 -8 11 -7 64 -110 64 -124 0 -5
8 -20 17 -35 10 -14 18 -33 19 -41 2 -8 9 -19 16 -23 7 -5 9 -9 5 -9 -5 0 -1
-12 7 -27 8 -16 34 -68 56 -118 22 -49 47 -101 54 -115 8 -14 14 -28 15 -33 0
-4 7 -20 15 -35 7 -15 17 -38 21 -52 4 -14 14 -32 21 -41 8 -9 16 -25 18 -36
3 -11 14 -41 25 -67 12 -25 30 -67 42 -93 11 -27 29 -65 40 -85 10 -21 16 -38
14 -38 -3 0 5 -19 17 -43 12 -23 21 -48 20 -54 -2 -7 2 -13 8 -13 5 0 10 -9
10 -19 0 -11 6 -26 13 -33 7 -7 13 -15 13 -18 0 -13 39 -110 44 -110 4 0 7 -6
7 -14 0 -8 7 -29 15 -47 29 -62 68 -162 68 -176 0 -7 5 -13 10 -13 6 0 10 -6
10 -14 0 -12 26 -79 70 -181 4 -11 16 -40 25 -65 9 -25 22 -56 28 -70 5 -14
11 -32 13 -40 2 -8 8 -16 14 -18 5 -2 7 -8 4 -13 -3 -6 0 -16 6 -24 7 -8 9
-15 6 -15 -4 0 -1 -10 6 -22 7 -13 11 -26 10 -31 -1 -4 2 -7 8 -7 5 0 7 -7 4
-15 -4 -8 -1 -15 5 -15 6 0 10 -3 9 -7 -1 -5 4 -24 11 -43 8 -19 14 -37 15
-40 1 -6 25 -67 36 -95 5 -11 22 -56 38 -100 16 -44 33 -89 37 -100 5 -11 9
-22 9 -25 2 -8 27 -73 41 -105 8 -16 11 -33 9 -37 -3 -4 0 -8 6 -8 7 0 10 -6
7 -14 -3 -8 0 -20 8 -26 8 -6 11 -18 8 -26 -3 -8 -1 -14 4 -14 5 0 10 -6 10
-12 0 -7 10 -36 21 -64 12 -29 18 -55 15 -58 -4 -3 -2 -6 3 -6 5 0 16 -21 23
-47 8 -27 16 -52 20 -58 14 -25 48 -135 43 -139 -3 -4 1 -6 8 -6 7 0 10 -3 7
-7 -4 -3 -2 -12 4 -20 6 -7 9 -13 5 -13 -4 0 2 -17 12 -37 11 -21 17 -44 15
-50 -3 -7 0 -13 6 -13 6 0 11 -9 11 -20 0 -12 7 -34 15 -50 8 -16 16 -41 17
-55 1 -14 6 -25 11 -25 4 0 5 -4 2 -10 -3 -5 -1 -10 4 -10 6 0 11 -7 11 -15 0
-25 24 -95 33 -95 5 0 6 -4 3 -8 -2 -4 11 -51 29 -105 18 -53 31 -97 28 -97
-3 0 0 -7 7 -15 7 -8 9 -15 6 -15 -4 0 -2 -9 4 -21 11 -20 21 -53 22 -76 1 -7
6 -13 11 -13 5 0 7 -7 4 -15 -4 -8 -2 -17 3 -20 6 -4 10 -17 10 -31 0 -13 4
-24 8 -24 4 0 9 -11 10 -26 1 -14 6 -34 12 -44 5 -10 10 -27 10 -37 0 -10 7
-31 15 -46 9 -18 10 -25 2 -20 -9 5 -9 3 -1 -8 6 -8 15 -27 19 -44 5 -16 9
-33 10 -37 2 -5 4 -9 5 -10 1 -2 4 -12 5 -23 2 -11 10 -39 19 -63 8 -23 15
-43 15 -45 -1 -1 5 -22 12 -47 14 -51 17 -63 23 -87 3 -10 5 -20 7 -23 1 -3 3
-9 4 -15 1 -5 4 -17 8 -25 9 -24 20 -74 19 -82 -1 -5 2 -8 7 -8 6 0 8 -9 6
-20 -2 -11 0 -20 5 -20 4 0 7 -8 6 -17 -2 -10 3 -33 11 -50 7 -18 10 -33 7
-33 -4 0 -1 -7 6 -15 7 -8 10 -15 6 -15 -3 0 -1 -12 5 -26 5 -15 12 -43 15
-63 3 -20 9 -40 12 -46 7 -10 11 -25 16 -60 2 -11 4 -20 5 -20 2 0 4 -7 6 -15
1 -8 15 -62 29 -120 15 -58 29 -112 31 -120 2 -8 11 -44 20 -80 8 -36 17 -72
19 -80 2 -8 11 -41 19 -72 8 -32 13 -58 10 -58 -3 0 -1 -6 4 -13 6 -6 16 -42
23 -79 8 -37 16 -65 20 -63 3 2 5 -9 4 -23 -1 -15 3 -37 7 -50 10 -25 18 -63
25 -107 2 -16 8 -31 13 -33 4 -1 6 -14 3 -27 -2 -15 0 -25 7 -25 7 0 10 -4 7
-8 -3 -5 4 -44 16 -88 11 -43 20 -87 20 -97 -1 -9 2 -17 6 -17 4 0 8 -10 10
-23 3 -38 53 -202 62 -205 5 -2 7 -9 4 -17 -3 -7 0 -16 5 -20 15 -9 41 -73 41
-101 0 -12 4 -25 9 -28 5 -3 12 -23 16 -43 4 -20 18 -64 33 -96 l26 -59 31 36
c16 19 39 52 50 73 39 75 88 156 104 172 33 35 61 71 55 71 -4 0 -1 6 5 13 6
8 8 17 4 20 -3 4 -1 7 5 7 6 0 13 14 17 30 4 17 11 30 17 30 6 0 8 6 5 14 -3
8 -1 16 4 18 6 2 11 10 13 18 1 8 12 35 24 59 12 24 19 48 16 52 -3 5 -1 9 3
9 5 0 16 16 25 35 8 19 11 32 5 28 -6 -4 -1 7 11 24 12 17 22 34 22 38 0 3 18
44 40 91 22 47 40 92 40 100 0 8 5 14 10 14 6 0 10 6 10 14 0 7 9 33 19 57 11
24 19 46 18 49 -1 3 6 16 16 30 9 13 17 32 17 42 0 10 5 18 11 18 5 0 8 4 4 9
-3 5 -1 12 5 16 5 3 10 15 10 26 0 10 5 19 10 19 6 0 10 9 10 20 0 11 5 20 11
20 5 0 8 4 5 8 -3 5 1 19 8 33 6 13 20 44 30 69 16 40 29 71 57 135 10 24 32
78 34 85 0 3 11 27 23 54 12 27 22 55 22 62 0 8 4 14 9 14 8 0 25 56 22 73 0
4 3 7 7 7 4 0 19 31 32 70 13 38 28 70 33 70 4 0 6 4 2 9 -3 5 -1 12 5 16 6 4
8 11 5 16 -4 5 -1 9 6 9 7 0 10 3 6 6 -3 4 2 23 12 43 10 20 16 42 14 49 -3 6
0 12 6 12 6 0 11 9 11 20 0 11 5 20 10 20 6 0 10 6 9 12 -1 7 7 35 19 61 12
27 22 57 22 67 0 9 7 23 15 30 8 7 13 16 10 20 -3 5 -1 11 5 15 6 4 8 11 5 16
-4 5 -3 9 2 9 4 0 13 17 20 38 6 20 22 60 34 87 13 28 23 55 24 60 1 10 17 53
35 90 11 25 20 57 19 69 0 5 4 12 11 16 6 4 12 17 13 28 1 12 4 22 8 22 4 0
11 15 14 32 4 18 18 56 30 83 12 28 21 60 20 72 -1 12 1 20 5 18 6 -4 36 85
32 98 -1 4 2 7 6 7 5 0 9 6 9 13 1 6 10 41 21 76 12 36 19 68 16 72 -2 4 0 9
6 11 10 3 21 37 23 71 1 9 5 17 9 17 4 0 7 3 6 8 0 4 2 14 5 22 4 8 14 40 22
70 17 60 19 67 28 90 18 48 26 83 21 91 -3 5 -1 9 4 9 8 0 17 27 22 65 1 2 7
20 15 40 9 19 14 38 13 42 -1 5 3 18 10 29 6 12 9 24 5 27 -3 4 -1 12 5 19 5
7 12 27 15 43 3 17 10 44 15 62 6 17 8 34 4 37 -3 3 -1 6 5 6 5 0 10 6 10 13
1 14 18 92 23 107 1 3 2 9 1 14 -1 4 3 14 9 21 6 7 11 31 13 54 1 22 6 41 10
41 5 0 7 10 6 23 -2 12 3 33 10 45 7 13 10 26 7 29 -2 3 -1 16 5 30 5 13 12
38 15 56 8 44 12 62 14 62 3 0 11 40 14 70 2 17 9 43 15 59 6 16 9 31 7 34 -3
2 -1 13 5 23 5 10 11 31 14 46 4 32 13 68 15 68 1 0 3 7 5 15 1 8 8 41 14 72
7 32 12 59 11 60 -1 2 3 15 8 29 6 14 13 41 16 60 3 19 8 45 11 59 3 14 8 34
10 45 3 11 7 31 10 45 4 14 8 36 11 50 3 14 14 67 25 119 12 51 22 103 23 115
2 11 6 28 9 36 4 8 8 31 11 50 2 19 5 35 6 35 2 0 6 20 14 67 3 21 9 55 12 75
4 21 8 45 9 53 1 8 5 26 9 40 3 14 8 41 10 60 3 19 5 35 6 35 2 0 6 24 14 72
3 21 8 52 11 68 3 17 7 46 9 65 3 19 5 35 6 35 3 0 7 27 15 90 4 33 9 76 12
95 3 19 6 45 7 58 0 12 3 22 6 22 3 0 6 19 8 43 1 23 4 58 7 77 2 19 7 55 10
80 2 25 7 63 10 85 12 94 17 143 20 190 2 28 4 50 5 50 1 0 3 16 5 35 8 102
16 173 21 181 3 5 0 9 -6 9 -6 0 -8 5 -3 12 8 14 11 35 17 133 2 33 5 60 6 60
1 0 3 20 5 45 4 60 14 180 21 259 3 36 7 94 10 130 2 36 5 81 7 99 2 18 -1 32
-7 32 -7 0 -7 3 1 8 7 4 11 30 10 65 -1 31 0 57 3 57 14 0 20 762 6 779 -8 11
-8 13 0 8 14 -8 13 85 -1 95 -6 5 -6 8 2 8 8 0 9 9 3 30 -5 19 -5 30 1 30 6 0
7 5 3 12 -7 11 -10 46 -18 238 -2 52 -5 95 -6 95 0 0 -3 47 -6 105 -2 58 -6
126 -7 152 -4 54 1 53 68 -9 13 -13 27 -23 30 -23 3 0 13 -8 23 -17 10 -10 45
-40 78 -68 32 -27 73 -65 90 -82 17 -18 36 -33 41 -33 5 0 16 -11 23 -25 7
-14 15 -23 17 -21 6 5 113 -105 113 -117 0 -5 2 -8 5 -5 6 6 115 -102 115
-114 0 -4 9 -10 20 -13 11 -3 20 -11 20 -16 0 -5 33 -43 74 -84 40 -41 71 -77
68 -80 -3 -3 3 -5 13 -5 10 0 16 -3 12 -6 -3 -3 14 -26 39 -50 24 -25 44 -49
44 -54 0 -6 7 -10 16 -10 8 0 12 -4 9 -10 -3 -5 1 -10 10 -10 9 0 13 -4 10
-10 -3 -5 -2 -10 4 -10 5 0 13 -9 16 -21 4 -11 9 -18 12 -16 5 6 43 -29 43
-39 0 -12 28 -33 35 -26 5 4 5 2 2 -4 -3 -6 20 -38 51 -72 31 -34 62 -68 67
-75 37 -45 101 -123 105 -127 17 -16 90 -110 90 -115 0 -3 10 -17 23 -31 51
-57 57 -64 57 -72 0 -4 16 -25 35 -46 19 -21 37 -46 40 -57 4 -10 11 -19 16
-19 5 0 9 -6 9 -13 0 -7 9 -19 20 -27 11 -8 20 -18 20 -23 0 -11 61 -101 72
-105 4 -2 8 -7 8 -12 0 -11 81 -133 94 -142 6 -4 8 -8 4 -8 -6 0 20 -45 49
-86 5 -5 13 -19 19 -30 31 -55 40 -70 57 -88 9 -11 17 -26 17 -33 0 -7 5 -13
10 -13 6 0 10 -6 10 -13 0 -7 8 -22 18 -33 9 -11 18 -26 20 -34 2 -8 8 -16 13
-18 5 -2 9 -10 9 -18 0 -8 4 -14 8 -14 5 0 14 -16 22 -35 8 -19 17 -35 21 -35
4 0 9 -8 13 -17 3 -10 15 -34 26 -53 39 -65 54 -95 52 -102 -1 -5 2 -8 7 -8 5
0 14 -15 22 -32 7 -18 15 -35 18 -38 3 -3 24 -41 46 -85 21 -44 43 -83 48 -86
5 -3 8 -9 7 -13 -3 -9 32 -79 43 -87 5 -3 8 -8 8 -10 -3 -11 24 -69 32 -69 4
0 5 -5 2 -10 -3 -6 -1 -10 5 -10 6 0 8 -5 5 -10 -3 -6 -1 -10 5 -10 6 0 8 -5
5 -10 -3 -6 -1 -10 5 -10 6 0 8 -4 5 -10 -3 -6 2 -10 11 -10 10 0 14 -3 11 -7
-4 -3 6 -18 21 -33 25 -24 33 -36 44 -68 1 -4 9 -15 18 -25 8 -10 13 -19 10
-20 -3 -1 9 -16 25 -34 17 -17 48 -57 70 -90 22 -32 44 -61 48 -64 5 -3 7 -8
6 -10 -5 -7 35 -69 44 -69 4 0 5 -5 2 -10 -3 -6 1 -13 9 -16 9 -3 16 -12 16
-20 0 -8 5 -14 11 -14 5 0 9 -3 7 -7 -2 -5 14 -26 35 -48 l39 -40 -5 33 c-3
17 -2 32 2 32 4 0 8 6 9 13 0 6 3 32 6 57 3 25 8 88 11 140 6 105 18 205 26
205 1 0 2 11 3 25 1 14 4 30 7 35 5 10 5 18 -6 165 -8 113 -12 155 -15 155 -1
0 -3 32 -5 70 -2 39 -6 99 -9 135 -3 36 -8 94 -11 130 -3 36 -7 83 -9 106 -1
22 -7 47 -11 54 -6 9 -4 11 4 5 10 -6 11 -3 3 11 -5 11 -10 35 -10 54 0 19 -1
37 -2 40 -1 3 -3 23 -5 45 -2 22 -6 65 -10 97 -3 31 -8 78 -10 105 -2 26 -5
48 -6 48 0 0 -2 16 -4 35 -1 19 -6 62 -10 95 -10 82 -13 113 -16 163 -1 23 -5
42 -8 42 -3 0 -6 19 -7 43 0 23 -4 67 -8 97 -4 30 -10 75 -13 100 -8 67 -10
85 -13 85 -1 0 -3 20 -5 45 -4 45 -7 74 -21 185 -3 33 -7 70 -7 83 -1 12 -4
22 -7 22 -3 0 -6 23 -6 50 1 28 -1 50 -4 50 -3 0 -6 8 -7 18 -1 15 -10 85 -17
137 -2 11 -4 20 -6 20 -1 0 -3 14 -5 30 -4 48 -17 129 -21 136 -1 3 -6 28 -10
55 -3 27 -8 53 -11 57 -2 4 -7 22 -9 40 -10 69 -16 99 -44 227 -12 52 -23 106
-25 120 -10 58 -14 77 -24 108 -5 17 -7 32 -4 32 3 0 1 6 -5 13 -6 6 -11 15
-11 20 -1 4 -1 8 -2 10 0 1 -2 13 -4 27 -1 14 -6 39 -10 55 -4 17 -8 35 -9 40
-1 6 -5 15 -9 21 -4 7 -9 29 -13 49 -3 21 -14 65 -25 98 -11 33 -22 78 -25 99
-4 21 -11 38 -17 38 -6 0 -8 3 -4 6 3 3 -1 23 -8 45 -8 21 -12 39 -9 39 2 0
-3 16 -11 36 -8 20 -15 45 -15 55 0 11 -4 19 -8 19 -4 0 -9 9 -10 20 -4 42 -6
50 -12 50 -3 0 -6 9 -7 20 -2 22 -41 154 -55 185 -5 11 -10 30 -11 43 0 12 -5
22 -10 22 -5 0 -7 6 -4 14 3 7 -1 26 -9 41 -8 15 -12 31 -9 35 3 5 0 14 -7 22
-7 7 -13 18 -14 23 0 6 -7 30 -14 55 -7 25 -14 51 -16 58 -2 7 -2 13 -1 15 1
2 -6 16 -17 31 -10 16 -12 25 -5 21 7 -5 10 -4 6 2 -8 13 -29 64 -32 78 -2 6
-10 33 -20 60 -9 28 -18 58 -21 69 -2 10 -8 24 -14 30 -5 7 -7 16 -3 19 3 4 0
13 -7 22 -7 8 -9 15 -4 15 4 0 3 5 -4 12 -7 7 -12 18 -12 24 0 7 -5 25 -12 41
-6 15 -12 33 -14 38 -1 6 -10 33 -19 60 -10 28 -18 55 -19 62 -1 7 -5 16 -9
19 -4 4 -7 16 -7 26 0 10 -4 18 -10 18 -5 0 -9 3 -8 8 4 13 -46 157 -56 164
-6 4 -7 8 -2 8 5 0 3 7 -4 15 -7 8 -9 15 -5 15 4 0 2 7 -5 15 -7 8 -10 15 -7
15 3 0 -5 25 -18 55 -14 30 -22 55 -20 55 3 0 0 10 -7 23 -7 12 -11 25 -10 30
1 4 -2 7 -8 7 -5 0 -7 7 -4 15 4 8 2 15 -3 15 -5 0 -16 22 -23 50 -7 27 -18
50 -23 50 -6 0 -8 3 -4 6 3 4 -2 23 -13 44 -11 21 -16 40 -13 44 4 3 1 6 -5 6
-7 0 -11 3 -9 8 2 8 -16 54 -84 212 -13 30 -26 57 -29 60 -3 3 -7 14 -8 25 -2
11 -8 23 -14 26 -5 3 -9 8 -7 10 4 8 -25 79 -33 79 -4 0 -7 3 -6 8 4 13 -26
82 -36 82 -5 0 -6 3 -3 6 4 4 0 19 -7 33 -26 48 -78 166 -80 179 -1 8 -7 17
-12 20 -5 4 -9 12 -9 17 0 6 -13 36 -28 68 -65 137 -81 172 -82 180 0 4 -7 12
-15 17 -8 5 -12 10 -7 10 4 0 -3 19 -15 43 -12 23 -23 44 -23 47 -3 16 -50
106 -57 108 -5 2 -6 7 -3 12 3 4 -2 13 -10 20 -8 7 -15 21 -15 31 0 11 -5 19
-11 19 -5 0 -8 4 -4 9 3 5 -4 16 -15 24 -11 7 -17 17 -14 20 3 3 -3 18 -14 34
-10 15 -23 38 -26 51 -4 12 -12 22 -17 22 -6 0 -7 5 -4 10 3 6 2 10 -2 10 -5
0 -14 12 -20 28 -15 33 -56 107 -71 124 -6 7 -12 20 -14 28 -3 14 -7 21 -36
55 -7 8 -9 15 -5 15 4 0 -1 7 -11 15 -11 8 -17 15 -13 15 4 0 -4 18 -18 40
-14 22 -25 44 -25 50 0 5 -4 10 -10 10 -5 0 -10 5 -10 11 0 6 -7 17 -15 26 -8
8 -13 19 -10 24 4 5 1 9 -4 9 -6 0 -11 7 -11 15 0 8 -4 15 -9 15 -5 0 -11 8
-14 18 -6 17 -37 72 -47 82 -3 3 -11 17 -19 33 -8 15 -18 27 -23 27 -5 0 -7 4
-3 9 3 5 0 15 -7 23 -19 19 -78 118 -78 129 0 5 -4 9 -9 9 -5 0 -12 8 -15 18
-13 34 -37 72 -47 72 -6 0 -8 4 -5 9 3 5 -1 14 -9 21 -8 7 -12 16 -9 21 3 5 1
9 -3 9 -5 0 -17 17 -28 38 -11 20 -26 43 -33 50 -7 8 -20 28 -29 45 -9 18 -21
35 -27 39 -6 4 -7 8 -2 8 5 0 1 9 -9 20 -10 11 -15 20 -11 20 7 0 210 -105
282 -146 23 -13 44 -20 48 -17 3 3 6 1 6 -5 0 -10 40 -28 49 -23 2 2 7 -1 10
-6 3 -5 31 -23 61 -39 30 -16 57 -31 60 -34 7 -8 81 -48 113 -62 15 -7 27 -16
27 -20 0 -4 4 -8 10 -8 5 0 29 -13 52 -29 24 -16 46 -27 49 -25 4 2 9 -3 13
-11 3 -8 12 -15 21 -15 8 0 15 -4 15 -10 0 -5 6 -10 14 -10 7 0 19 -7 26 -15
7 -9 15 -13 18 -10 3 2 12 -3 21 -13 9 -9 28 -23 43 -31 15 -8 37 -22 47 -33
11 -10 23 -18 26 -18 4 0 22 -12 41 -26 19 -15 34 -22 34 -18 0 5 5 1 11 -8 5
-10 17 -18 24 -18 8 0 15 -4 15 -9 0 -11 56 -41 77 -41 7 0 13 -4 13 -8 0 -4
20 -13 44 -21 26 -7 60 -28 83 -52 21 -21 44 -39 51 -39 8 0 10 -5 6 -12 -5
-8 -2 -9 9 -5 11 4 17 1 17 -9 0 -9 6 -14 13 -11 6 2 23 -2 37 -9 14 -7 45
-22 70 -33 56 -25 124 -64 128 -73 2 -5 9 -8 17 -8 7 0 18 -7 25 -15 7 -8 21
-15 31 -15 11 0 19 -4 19 -9 0 -5 24 -17 53 -27 28 -9 58 -21 65 -27 16 -13
28 -2 16 15 -6 7 -18 40 -29 73 -11 33 -24 63 -30 67 -5 4 -7 8 -3 8 5 0 -10
34 -32 76 -22 42 -40 83 -40 90 0 8 -4 14 -10 14 -5 0 -9 3 -8 8 2 6 -15 64
-29 102 -4 8 -5 21 -4 28 1 6 -3 12 -9 12 -6 0 -8 5 -5 10 3 6 1 10 -6 10 -7
0 -10 3 -6 6 8 8 -42 104 -55 104 -5 0 -7 4 -4 8 3 5 -6 25 -19 45 -14 20 -25
40 -25 46 0 5 -3 11 -7 13 -5 2 -19 24 -32 51 -13 26 -29 47 -34 47 -6 0 -8 3
-4 6 3 3 -5 24 -19 45 -13 21 -24 43 -24 49 0 5 -4 10 -9 10 -5 0 -15 16 -22
34 -7 19 -16 33 -21 30 -4 -3 -8 2 -8 10 0 8 -13 35 -30 59 -16 25 -30 50 -30
56 0 6 -4 11 -10 11 -5 0 -10 6 -10 13 0 7 -8 22 -18 33 -9 10 -23 30 -30 44
-23 46 -54 95 -66 102 -6 4 -7 8 -3 8 5 0 1 7 -7 16 -9 8 -16 22 -16 30 0 8
-4 14 -10 14 -5 0 -10 7 -10 15 0 8 -4 15 -10 15 -5 0 -10 7 -10 15 0 8 -5 15
-11 15 -5 0 -7 5 -4 10 3 6 2 10 -2 10 -5 0 -17 16 -27 35 -11 19 -23 35 -28
35 -5 0 -7 4 -3 9 3 6 -3 14 -12 20 -10 6 -15 11 -11 11 7 0 -49 91 -72 118
-6 6 -7 12 -3 12 4 0 3 4 -2 8 -6 4 -24 28 -40 54 -17 27 -34 48 -38 48 -5 0
-5 5 -2 10 3 6 1 10 -4 10 -6 0 -11 4 -11 9 0 6 -20 39 -45 75 -25 37 -45 71
-45 76 0 6 -4 10 -10 10 -5 0 -10 7 -10 15 0 8 -4 15 -9 15 -5 0 -14 14 -21
30 -7 17 -16 30 -21 30 -5 0 -9 7 -9 15 0 8 -4 15 -10 15 -5 0 -10 7 -10 15 0
8 -5 15 -11 15 -5 0 -8 4 -5 9 3 5 -1 11 -9 15 -8 3 -15 11 -15 17 0 7 -12 28
-27 48 -16 20 -28 39 -28 43 0 3 -10 18 -22 32 -13 15 -23 31 -23 36 0 6 -4
10 -10 10 -5 0 -10 5 -10 10 0 12 -41 73 -52 78 -5 2 -8 10 -8 18 0 8 -4 14
-8 14 -5 0 -15 12 -23 28 -8 15 -22 34 -31 43 -10 9 -18 19 -18 23 0 15 -88
124 -95 118 -5 -4 -5 -2 -2 4 4 6 -3 22 -14 35 -11 13 -28 36 -37 52 -9 15
-20 27 -24 27 -4 0 -8 6 -8 13 0 6 -14 26 -30 44 -17 18 -30 36 -30 41 0 6 -7
13 -16 16 -9 4 -14 9 -11 12 3 3 -4 17 -16 30 -35 37 -48 54 -42 54 3 0 -3 8
-12 18 -10 9 -40 46 -68 82 -47 61 -76 98 -100 124 -6 6 -26 31 -45 56 -19 25
-44 55 -55 66 -11 12 -31 35 -45 53 -14 17 -41 48 -60 69 -19 22 -49 57 -67
78 -18 22 -48 57 -68 79 -19 22 -35 43 -35 47 0 4 -9 10 -20 13 -11 4 -18 10
-15 15 3 5 -5 17 -18 27 -13 10 -29 29 -36 41 -7 12 -16 20 -22 17 -5 -4 -9
-1 -9 5 0 12 -46 63 -232 251 -71 71 -128 135 -128 141 0 6 -3 9 -6 6 -3 -3
-54 43 -115 103 -60 59 -109 106 -109 104 0 -2 -11 7 -25 21 -14 14 -25 30
-25 36 0 6 -3 8 -6 5 -4 -3 -15 5 -26 18 -11 14 -24 23 -29 20 -5 -4 -9 1 -9
9 0 9 -7 16 -15 16 -8 0 -15 7 -15 15 0 8 -5 15 -10 15 -6 0 -28 18 -49 40
-21 22 -40 40 -44 40 -3 0 -31 25 -62 55 -32 30 -62 55 -68 55 -15 0 1 14 19
16 9 1 23 6 32 10 9 4 21 8 25 8 4 1 12 8 17 16 5 8 10 11 10 6 0 -5 6 -3 13
3 8 6 17 8 20 4 4 -3 7 -2 7 4 0 6 12 16 28 22 44 19 164 98 170 113 2 4 10 8
17 8 7 0 15 3 17 8 2 4 27 27 56 51 55 45 152 140 152 148 0 2 10 14 23 27 12
13 29 33 37 46 14 20 35 47 59 76 5 7 7 15 4 18 -4 3 -1 6 5 6 7 0 12 7 12 15
0 8 4 15 9 15 5 0 13 9 16 21 4 12 14 30 24 40 9 11 16 23 17 27 0 4 16 39 34
77 18 39 33 76 33 83 0 6 4 12 9 12 4 0 7 3 7 8 -1 4 0 10 1 15 1 4 4 12 5 17
1 6 4 12 5 15 1 3 3 8 4 13 2 4 8 27 15 52 7 25 14 50 15 55 1 6 5 16 10 23 4
7 9 30 11 51 1 20 8 48 15 60 6 13 10 32 7 42 -3 10 -1 22 5 25 5 3 7 12 4 20
-3 8 -1 14 5 14 6 0 9 8 8 18 -1 9 0 19 1 22 1 3 3 16 5 30 2 14 6 42 9 63 3
20 8 54 11 75 3 20 8 57 11 82 3 25 8 63 10 85 1 22 6 67 9 100 22 235 25 728
4 741 -4 2 -4 17 1 33 4 16 6 32 2 35 -3 3 -7 27 -9 53 -8 119 -10 140 -17
151 -3 6 -2 13 4 17 6 4 7 11 3 18 -4 6 -8 38 -11 71 -2 34 -7 65 -12 71 -5 6
-5 17 0 25 5 8 7 17 4 21 -5 8 -18 136 -17 167 1 12 -2 22 -6 22 -3 0 -6 19
-7 43 -1 23 -4 67 -7 97 -4 30 -9 75 -11 100 -3 25 -8 65 -11 90 -18 169 -19
172 -29 189 -7 10 -6 12 4 6 9 -5 11 -4 6 4 -5 7 -9 24 -11 39 -2 15 -7 50
-11 77 -4 28 -8 57 -9 65 -2 16 -11 67 -20 110 -2 14 -7 41 -9 60 -3 19 -8 51
-12 70 -4 19 -8 44 -9 55 -1 11 -4 21 -5 23 -1 1 -4 11 -5 22 -1 11 -3 21 -5
23 -2 2 -3 11 -13 82 -2 17 -7 39 -10 50 -3 11 -9 40 -12 65 -4 24 -9 49 -13
54 -3 6 -6 22 -7 36 -1 14 -4 34 -8 45 -3 11 -9 36 -12 55 -3 19 -8 44 -12 55
-3 11 -7 31 -9 45 -4 29 -12 65 -15 65 -1 0 -2 11 -3 25 -1 14 -5 31 -9 38 -5
6 -5 17 -2 22 3 6 2 10 -2 10 -5 0 -10 12 -11 28 -3 28 -9 67 -12 67 -3 0 -11
38 -14 66 -2 15 -7 32 -10 38 -4 6 -9 24 -12 39 -6 37 -40 153 -60 207 -4 11
-9 29 -11 40 -2 11 -6 27 -10 35 -3 8 -7 18 -8 23 -2 4 -3 8 -5 10 -1 1 -3 9
-5 17 -4 17 -61 176 -72 200 -3 8 -5 19 -4 24 1 5 -3 12 -8 16 -6 3 -12 18
-13 33 -1 15 -6 27 -10 27 -4 0 -8 8 -8 18 0 10 -5 23 -12 30 -7 7 -9 12 -5
12 4 0 2 10 -5 23 -6 12 -13 27 -14 32 -1 6 -14 36 -29 69 -14 32 -28 66 -30
75 -2 9 -17 44 -34 79 -17 34 -31 67 -31 72 0 6 -4 10 -8 10 -5 0 -9 6 -9 13
0 16 -63 146 -75 153 -4 3 -8 14 -8 25 0 10 -4 19 -9 19 -5 0 -14 13 -21 30
-7 16 -16 27 -21 24 -5 -3 -6 2 -3 10 4 10 1 16 -7 16 -7 0 -10 3 -6 6 3 4 -9
30 -28 59 -18 29 -31 56 -28 59 4 3 2 6 -4 6 -6 0 -32 34 -58 76 -27 42 -55
82 -62 90 -8 8 -12 14 -8 14 4 0 0 7 -7 15 -30 33 -38 45 -38 55 0 5 -4 10 -8
10 -4 0 -16 14 -26 31 -10 17 -33 47 -52 65 -18 19 -33 37 -33 40 1 3 -16 24
-36 47 -21 23 -44 51 -52 64 -8 13 -19 20 -24 17 -5 -3 -8 -1 -7 4 2 6 -20 33
-49 60 -28 28 -49 53 -45 56 3 3 -1 6 -8 6 -7 0 -22 10 -34 23 -30 33 -132
117 -191 158 -27 19 -61 44 -74 56 -14 12 -28 20 -32 18 -4 -3 -12 2 -19 10
-7 8 -19 15 -26 15 -8 0 -14 5 -14 10 0 6 -6 10 -14 10 -8 0 -21 7 -30 15 -8
9 -19 16 -23 16 -4 1 -26 11 -48 22 -22 12 -42 22 -45 22 -3 0 -24 11 -47 23
-23 12 -49 22 -57 22 -8 0 -16 4 -18 8 -2 6 -91 44 -133 56 -9 3 -17 6 -62 23
-10 3 -29 8 -43 10 -13 2 -27 8 -30 11 -3 4 -12 7 -20 7 -8 -1 -21 3 -27 8 -7
5 -13 6 -13 2 0 -4 -6 -3 -12 2 -7 6 -20 10 -28 10 -15 1 -39 5 -90 18 -14 4
-38 8 -55 10 -16 1 -30 4 -30 5 0 5 -119 20 -205 25 -36 2 -66 4 -67 5 -4 1
-183 1 -185 0 -2 -1 -32 -3 -68 -5 -92 -5 -182 -15 -200 -21 -8 -4 -33 -8 -55
-9 -22 -2 -51 -6 -65 -9 -42 -10 -84 -18 -97 -19 -7 0 -13 -3 -13 -7 0 -3 -10
-6 -22 -7 -25 -1 -29 -2 -143 -33 -44 -12 -91 -24 -105 -26 -13 -3 -27 -8 -30
-12 -3 -4 -12 -7 -20 -7 -14 1 -34 -6 -95 -30 -11 -4 -26 -9 -34 -11 -8 -1
-17 -8 -21 -14 -4 -7 -11 -11 -16 -11 -17 2 -64 -18 -64 -27 0 -5 -7 -9 -14
-9 -18 0 -108 -44 -118 -58 -5 -7 -8 -7 -8 0 0 6 -4 5 -8 -2 -4 -6 -14 -13
-21 -15 -8 -2 -23 -10 -33 -18 -10 -8 -22 -15 -26 -15 -4 0 -31 -14 -61 -32
-30 -18 -61 -33 -69 -33 -7 0 -10 -4 -7 -10 3 -5 -3 -10 -14 -10 -12 0 -21 -3
-21 -8 0 -4 -17 -15 -37 -25 -50 -23 -129 -69 -151 -88 -9 -7 -29 -20 -44 -26
-16 -7 -28 -17 -28 -23 0 -5 -3 -9 -7 -8 -15 3 -43 -14 -37 -23 3 -5 1 -8 -4
-7 -8 2 -101 -61 -122 -82 -3 -3 -23 -19 -45 -35 -53 -39 -74 -56 -97 -77 -10
-10 -23 -18 -29 -18 -5 0 -7 -4 -4 -10 3 -5 2 -10 -4 -10 -10 0 -42 -26 -102
-82 -22 -21 -42 -38 -46 -38 -3 0 -15 -10 -27 -22 -12 -13 -55 -52 -95 -88
-201 -178 -361 -333 -361 -351 0 -7 -3 -10 -6 -6 -6 6 -19 -6 -139 -139 -44
-49 -92 -101 -107 -116 -14 -16 -25 -28 -23 -28 2 0 -12 -16 -31 -36 -18 -20
-44 -50 -56 -66 -13 -16 -31 -39 -41 -51 -10 -12 -28 -35 -40 -51 -12 -16 -30
-37 -39 -47 -10 -11 -18 -22 -18 -26 0 -3 -7 -15 -16 -25 -18 -19 -27 -13
-144 89 -48 41 -68 58 -106 88 -21 17 -56 45 -78 63 -46 37 -44 36 -141 112
-91 71 -75 59 -190 146 -55 41 -108 82 -118 89 -9 8 -19 15 -22 15 -3 0 -31
20 -62 43 -126 95 -419 292 -544 367 -14 8 -97 58 -185 111 -382 231 -908 506
-1289 674 -71 32 -148 66 -170 75 -286 127 -866 328 -1295 449 -118 34 -228
65 -245 70 -34 11 -341 85 -515 125 -108 25 -402 77 -535 96 -44 6 -91 13
-105 16 -33 6 -192 27 -300 39 -30 4 -66 8 -80 10 -14 2 -56 6 -95 10 -38 4
-83 8 -100 10 -16 2 -61 6 -100 10 -38 3 -90 8 -115 10 -25 2 -97 7 -160 10
-63 4 -128 8 -145 10 -51 7 -654 23 -659 18z"/>
</g>
</svg>
